<?xml version="1.0" encoding="UTF-8"?>
<!DOCTYPE svg PUBLIC "-//W3C//DTD SVG 1.1//EN" "http://www.w3.org/Graphics/SVG/1.1/DTD/svg11.dtd">
<svg width="157mm" height="97mm" viewBox="0 0 15700 9700" version="1.1" xmlns="http://www.w3.org/2000/svg" xmlns:xlink="http://www.w3.org/1999/xlink" stroke-width="28.222" stroke-linejoin="round" xml:space="preserve">
 <path fill="rgb(255,255,255)" stroke="none" d="M 7834,9666 L 0,9666 0,-3 15667,-3 15667,9666 7834,9666 Z"/>
 <path fill="none" stroke="rgb(179,179,179)" stroke-linejoin="round" d="M 8787,7675 L 2406,7675 2406,389 15168,389 15168,7675 8787,7675 Z"/>
 <path fill="none" stroke="rgb(179,179,179)" stroke-linejoin="round" d="M 15168,7674 L 2406,7674"/>
 <path fill="none" stroke="rgb(179,179,179)" stroke-linejoin="round" d="M 15168,6945 L 2406,6945"/>
 <path fill="none" stroke="rgb(179,179,179)" stroke-linejoin="round" d="M 15168,6216 L 2406,6216"/>
 <path fill="none" stroke="rgb(179,179,179)" stroke-linejoin="round" d="M 15168,5487 L 2406,5487"/>
 <path fill="none" stroke="rgb(179,179,179)" stroke-linejoin="round" d="M 15168,4760 L 2406,4760"/>
 <path fill="none" stroke="rgb(179,179,179)" stroke-linejoin="round" d="M 15168,4031 L 2406,4031"/>
 <path fill="none" stroke="rgb(179,179,179)" stroke-linejoin="round" d="M 15168,3302 L 2406,3302"/>
 <path fill="none" stroke="rgb(179,179,179)" stroke-linejoin="round" d="M 15168,2574 L 2406,2574"/>
 <path fill="none" stroke="rgb(179,179,179)" stroke-linejoin="round" d="M 15168,1845 L 2406,1845"/>
 <path fill="none" stroke="rgb(179,179,179)" stroke-linejoin="round" d="M 15168,1116 L 2406,1116"/>
 <path fill="none" stroke="rgb(179,179,179)" stroke-linejoin="round" d="M 15168,388 L 2406,388"/>
 <path fill="none" stroke="rgb(179,179,179)" stroke-linejoin="round" d="M 2406,7824 L 2406,7674"/>
 <path fill="none" stroke="rgb(179,179,179)" stroke-linejoin="round" d="M 2406,7824 L 2406,7674"/>
 <path fill="none" stroke="rgb(179,179,179)" stroke-linejoin="round" d="M 3682,7824 L 3682,7674"/>
 <path fill="none" stroke="rgb(179,179,179)" stroke-linejoin="round" d="M 3682,7824 L 3682,7674"/>
 <path fill="none" stroke="rgb(179,179,179)" stroke-linejoin="round" d="M 4958,7824 L 4958,7674"/>
 <path fill="none" stroke="rgb(179,179,179)" stroke-linejoin="round" d="M 4958,7824 L 4958,7674"/>
 <path fill="none" stroke="rgb(179,179,179)" stroke-linejoin="round" d="M 6234,7824 L 6234,7674"/>
 <path fill="none" stroke="rgb(179,179,179)" stroke-linejoin="round" d="M 6234,7824 L 6234,7674"/>
 <path fill="none" stroke="rgb(179,179,179)" stroke-linejoin="round" d="M 7511,7824 L 7511,7674"/>
 <path fill="none" stroke="rgb(179,179,179)" stroke-linejoin="round" d="M 7511,7824 L 7511,7674"/>
 <path fill="none" stroke="rgb(179,179,179)" stroke-linejoin="round" d="M 8786,7824 L 8786,7674"/>
 <path fill="none" stroke="rgb(179,179,179)" stroke-linejoin="round" d="M 8786,7824 L 8786,7674"/>
 <path fill="none" stroke="rgb(179,179,179)" stroke-linejoin="round" d="M 10062,7824 L 10062,7674"/>
 <path fill="none" stroke="rgb(179,179,179)" stroke-linejoin="round" d="M 10062,7824 L 10062,7674"/>
 <path fill="none" stroke="rgb(179,179,179)" stroke-linejoin="round" d="M 11339,7824 L 11339,7674"/>
 <path fill="none" stroke="rgb(179,179,179)" stroke-linejoin="round" d="M 11339,7824 L 11339,7674"/>
 <path fill="none" stroke="rgb(179,179,179)" stroke-linejoin="round" d="M 12615,7824 L 12615,7674"/>
 <path fill="none" stroke="rgb(179,179,179)" stroke-linejoin="round" d="M 12615,7824 L 12615,7674"/>
 <path fill="none" stroke="rgb(179,179,179)" stroke-linejoin="round" d="M 13891,7824 L 13891,7674"/>
 <path fill="none" stroke="rgb(179,179,179)" stroke-linejoin="round" d="M 13891,7824 L 13891,7674"/>
 <path fill="none" stroke="rgb(179,179,179)" stroke-linejoin="round" d="M 15168,7824 L 15168,7674"/>
 <path fill="none" stroke="rgb(179,179,179)" stroke-linejoin="round" d="M 15168,7824 L 15168,7674"/>
 <path fill="none" stroke="rgb(179,179,179)" stroke-linejoin="round" d="M 2406,7674 L 15168,7674"/>
 <path fill="none" stroke="rgb(179,179,179)" stroke-linejoin="round" d="M 2256,7674 L 2406,7674"/>
 <path fill="none" stroke="rgb(179,179,179)" stroke-linejoin="round" d="M 2256,7674 L 2406,7674"/>
 <path fill="none" stroke="rgb(179,179,179)" stroke-linejoin="round" d="M 2256,6945 L 2406,6945"/>
 <path fill="none" stroke="rgb(179,179,179)" stroke-linejoin="round" d="M 2256,6945 L 2406,6945"/>
 <path fill="none" stroke="rgb(179,179,179)" stroke-linejoin="round" d="M 2256,6216 L 2406,6216"/>
 <path fill="none" stroke="rgb(179,179,179)" stroke-linejoin="round" d="M 2256,6216 L 2406,6216"/>
 <path fill="none" stroke="rgb(179,179,179)" stroke-linejoin="round" d="M 2256,5487 L 2406,5487"/>
 <path fill="none" stroke="rgb(179,179,179)" stroke-linejoin="round" d="M 2256,5487 L 2406,5487"/>
 <path fill="none" stroke="rgb(179,179,179)" stroke-linejoin="round" d="M 2256,4760 L 2406,4760"/>
 <path fill="none" stroke="rgb(179,179,179)" stroke-linejoin="round" d="M 2256,4760 L 2406,4760"/>
 <path fill="none" stroke="rgb(179,179,179)" stroke-linejoin="round" d="M 2256,4031 L 2406,4031"/>
 <path fill="none" stroke="rgb(179,179,179)" stroke-linejoin="round" d="M 2256,4031 L 2406,4031"/>
 <path fill="none" stroke="rgb(179,179,179)" stroke-linejoin="round" d="M 2256,3302 L 2406,3302"/>
 <path fill="none" stroke="rgb(179,179,179)" stroke-linejoin="round" d="M 2256,3302 L 2406,3302"/>
 <path fill="none" stroke="rgb(179,179,179)" stroke-linejoin="round" d="M 2256,2574 L 2406,2574"/>
 <path fill="none" stroke="rgb(179,179,179)" stroke-linejoin="round" d="M 2256,2574 L 2406,2574"/>
 <path fill="none" stroke="rgb(179,179,179)" stroke-linejoin="round" d="M 2256,1845 L 2406,1845"/>
 <path fill="none" stroke="rgb(179,179,179)" stroke-linejoin="round" d="M 2256,1845 L 2406,1845"/>
 <path fill="none" stroke="rgb(179,179,179)" stroke-linejoin="round" d="M 2256,1116 L 2406,1116"/>
 <path fill="none" stroke="rgb(179,179,179)" stroke-linejoin="round" d="M 2256,1116 L 2406,1116"/>
 <path fill="none" stroke="rgb(179,179,179)" stroke-linejoin="round" d="M 2256,388 L 2406,388"/>
 <path fill="none" stroke="rgb(179,179,179)" stroke-linejoin="round" d="M 2256,388 L 2406,388"/>
 <path fill="none" stroke="rgb(179,179,179)" stroke-linejoin="round" d="M 2406,7674 L 2406,388"/>
 <path fill="none" stroke="rgb(255,0,0)" stroke-width="80" stroke-linejoin="round" d="M 2406,7455 L 3682,7115 4958,6798 6234,6388 7511,5899 8786,5309 10062,4509 11339,3726 12615,2830 13891,1858 15168,735"/>
 <path fill="rgb(255,0,0)" stroke="none" d="M 2281,7580 L 2531,7580 2406,7330 2281,7580 Z"/>
 <path fill="none" stroke="rgb(255,0,0)" stroke-linejoin="round" d="M 2281,7580 L 2531,7580 2406,7330 2281,7580 Z"/>
 <path fill="rgb(255,0,0)" stroke="none" d="M 3557,7240 L 3807,7240 3682,6990 3557,7240 Z"/>
 <path fill="none" stroke="rgb(255,0,0)" stroke-linejoin="round" d="M 3557,7240 L 3807,7240 3682,6990 3557,7240 Z"/>
 <path fill="rgb(255,0,0)" stroke="none" d="M 4833,6923 L 5083,6923 4958,6673 4833,6923 Z"/>
 <path fill="none" stroke="rgb(255,0,0)" stroke-linejoin="round" d="M 4833,6923 L 5083,6923 4958,6673 4833,6923 Z"/>
 <path fill="rgb(255,0,0)" stroke="none" d="M 6109,6513 L 6359,6513 6234,6263 6109,6513 Z"/>
 <path fill="none" stroke="rgb(255,0,0)" stroke-linejoin="round" d="M 6109,6513 L 6359,6513 6234,6263 6109,6513 Z"/>
 <path fill="rgb(255,0,0)" stroke="none" d="M 7386,6024 L 7636,6024 7511,5774 7386,6024 Z"/>
 <path fill="none" stroke="rgb(255,0,0)" stroke-linejoin="round" d="M 7386,6024 L 7636,6024 7511,5774 7386,6024 Z"/>
 <path fill="rgb(255,0,0)" stroke="none" d="M 8661,5434 L 8911,5434 8786,5184 8661,5434 Z"/>
 <path fill="none" stroke="rgb(255,0,0)" stroke-linejoin="round" d="M 8661,5434 L 8911,5434 8786,5184 8661,5434 Z"/>
 <path fill="rgb(255,0,0)" stroke="none" d="M 9937,4634 L 10187,4634 10062,4384 9937,4634 Z"/>
 <path fill="none" stroke="rgb(255,0,0)" stroke-linejoin="round" d="M 9937,4634 L 10187,4634 10062,4384 9937,4634 Z"/>
 <path fill="rgb(255,0,0)" stroke="none" d="M 11214,3851 L 11464,3851 11339,3601 11214,3851 Z"/>
 <path fill="none" stroke="rgb(255,0,0)" stroke-linejoin="round" d="M 11214,3851 L 11464,3851 11339,3601 11214,3851 Z"/>
 <path fill="rgb(255,0,0)" stroke="none" d="M 12490,2955 L 12740,2955 12615,2705 12490,2955 Z"/>
 <path fill="none" stroke="rgb(255,0,0)" stroke-linejoin="round" d="M 12490,2955 L 12740,2955 12615,2705 12490,2955 Z"/>
 <path fill="rgb(255,0,0)" stroke="none" d="M 13766,1983 L 14016,1983 13891,1733 13766,1983 Z"/>
 <path fill="none" stroke="rgb(255,0,0)" stroke-linejoin="round" d="M 13766,1983 L 14016,1983 13891,1733 13766,1983 Z"/>
 <path fill="rgb(255,0,0)" stroke="none" d="M 15043,860 L 15293,860 15168,610 15043,860 Z"/>
 <path fill="none" stroke="rgb(255,0,0)" stroke-linejoin="round" d="M 15043,860 L 15293,860 15168,610 15043,860 Z"/>
 <path fill="none" stroke="rgb(255,128,0)" stroke-width="80" stroke-linejoin="round" d="M 2406,7294 L 3682,7272 4958,7271 6234,7269 7511,7273 8786,7275 10062,7275 11339,7275 12615,7275 13891,7275 15168,7274"/>
 <path fill="rgb(255,128,0)" stroke="none" d="M 2281,7169 L 2281,7419 2531,7294 2281,7169 Z"/>
 <path fill="none" stroke="rgb(255,128,0)" stroke-linejoin="round" d="M 2281,7169 L 2281,7419 2531,7294 2281,7169 Z"/>
 <path fill="rgb(255,128,0)" stroke="none" d="M 3557,7147 L 3557,7397 3807,7272 3557,7147 Z"/>
 <path fill="none" stroke="rgb(255,128,0)" stroke-linejoin="round" d="M 3557,7147 L 3557,7397 3807,7272 3557,7147 Z"/>
 <path fill="rgb(255,128,0)" stroke="none" d="M 4833,7146 L 4833,7396 5083,7271 4833,7146 Z"/>
 <path fill="none" stroke="rgb(255,128,0)" stroke-linejoin="round" d="M 4833,7146 L 4833,7396 5083,7271 4833,7146 Z"/>
 <path fill="rgb(255,128,0)" stroke="none" d="M 6109,7144 L 6109,7394 6359,7269 6109,7144 Z"/>
 <path fill="none" stroke="rgb(255,128,0)" stroke-linejoin="round" d="M 6109,7144 L 6109,7394 6359,7269 6109,7144 Z"/>
 <path fill="rgb(255,128,0)" stroke="none" d="M 7386,7148 L 7386,7398 7636,7273 7386,7148 Z"/>
 <path fill="none" stroke="rgb(255,128,0)" stroke-linejoin="round" d="M 7386,7148 L 7386,7398 7636,7273 7386,7148 Z"/>
 <path fill="rgb(255,128,0)" stroke="none" d="M 8661,7150 L 8661,7400 8911,7275 8661,7150 Z"/>
 <path fill="none" stroke="rgb(255,128,0)" stroke-linejoin="round" d="M 8661,7150 L 8661,7400 8911,7275 8661,7150 Z"/>
 <path fill="rgb(255,128,0)" stroke="none" d="M 9937,7150 L 9937,7400 10187,7275 9937,7150 Z"/>
 <path fill="none" stroke="rgb(255,128,0)" stroke-linejoin="round" d="M 9937,7150 L 9937,7400 10187,7275 9937,7150 Z"/>
 <path fill="rgb(255,128,0)" stroke="none" d="M 11214,7150 L 11214,7400 11464,7275 11214,7150 Z"/>
 <path fill="none" stroke="rgb(255,128,0)" stroke-linejoin="round" d="M 11214,7150 L 11214,7400 11464,7275 11214,7150 Z"/>
 <path fill="rgb(255,128,0)" stroke="none" d="M 12490,7150 L 12490,7400 12740,7275 12490,7150 Z"/>
 <path fill="none" stroke="rgb(255,128,0)" stroke-linejoin="round" d="M 12490,7150 L 12490,7400 12740,7275 12490,7150 Z"/>
 <path fill="rgb(255,128,0)" stroke="none" d="M 13766,7150 L 13766,7400 14016,7275 13766,7150 Z"/>
 <path fill="none" stroke="rgb(255,128,0)" stroke-linejoin="round" d="M 13766,7150 L 13766,7400 14016,7275 13766,7150 Z"/>
 <path fill="rgb(255,128,0)" stroke="none" d="M 15043,7149 L 15043,7399 15293,7274 15043,7149 Z"/>
 <path fill="none" stroke="rgb(255,128,0)" stroke-linejoin="round" d="M 15043,7149 L 15043,7399 15293,7274 15043,7149 Z"/>
 <path fill="none" stroke="rgb(129,212,26)" stroke-width="80" stroke-linejoin="round" d="M 2406,7480 L 3682,7476 4958,7475 6234,7474 7511,7476 8786,7477 10062,7477 11339,7477 12615,7477 13891,7477 15168,7477"/>
 <path fill="rgb(129,212,26)" stroke="none" d="M 2281,7355 L 2406,7605 2531,7355 2281,7355 Z"/>
 <path fill="none" stroke="rgb(129,212,26)" stroke-linejoin="round" d="M 2281,7355 L 2406,7605 2531,7355 2281,7355 Z"/>
 <path fill="rgb(129,212,26)" stroke="none" d="M 3557,7351 L 3682,7601 3807,7351 3557,7351 Z"/>
 <path fill="none" stroke="rgb(129,212,26)" stroke-linejoin="round" d="M 3557,7351 L 3682,7601 3807,7351 3557,7351 Z"/>
 <path fill="rgb(129,212,26)" stroke="none" d="M 4833,7350 L 4958,7600 5083,7350 4833,7350 Z"/>
 <path fill="none" stroke="rgb(129,212,26)" stroke-linejoin="round" d="M 4833,7350 L 4958,7600 5083,7350 4833,7350 Z"/>
 <path fill="rgb(129,212,26)" stroke="none" d="M 6109,7349 L 6234,7599 6359,7349 6109,7349 Z"/>
 <path fill="none" stroke="rgb(129,212,26)" stroke-linejoin="round" d="M 6109,7349 L 6234,7599 6359,7349 6109,7349 Z"/>
 <path fill="rgb(129,212,26)" stroke="none" d="M 7386,7351 L 7511,7601 7636,7351 7386,7351 Z"/>
 <path fill="none" stroke="rgb(129,212,26)" stroke-linejoin="round" d="M 7386,7351 L 7511,7601 7636,7351 7386,7351 Z"/>
 <path fill="rgb(129,212,26)" stroke="none" d="M 8661,7352 L 8786,7602 8911,7352 8661,7352 Z"/>
 <path fill="none" stroke="rgb(129,212,26)" stroke-linejoin="round" d="M 8661,7352 L 8786,7602 8911,7352 8661,7352 Z"/>
 <path fill="rgb(129,212,26)" stroke="none" d="M 9937,7352 L 10062,7602 10187,7352 9937,7352 Z"/>
 <path fill="none" stroke="rgb(129,212,26)" stroke-linejoin="round" d="M 9937,7352 L 10062,7602 10187,7352 9937,7352 Z"/>
 <path fill="rgb(129,212,26)" stroke="none" d="M 11214,7352 L 11339,7602 11464,7352 11214,7352 Z"/>
 <path fill="none" stroke="rgb(129,212,26)" stroke-linejoin="round" d="M 11214,7352 L 11339,7602 11464,7352 11214,7352 Z"/>
 <path fill="rgb(129,212,26)" stroke="none" d="M 12490,7352 L 12615,7602 12740,7352 12490,7352 Z"/>
 <path fill="none" stroke="rgb(129,212,26)" stroke-linejoin="round" d="M 12490,7352 L 12615,7602 12740,7352 12490,7352 Z"/>
 <path fill="rgb(129,212,26)" stroke="none" d="M 13766,7352 L 13891,7602 14016,7352 13766,7352 Z"/>
 <path fill="none" stroke="rgb(129,212,26)" stroke-linejoin="round" d="M 13766,7352 L 13891,7602 14016,7352 13766,7352 Z"/>
 <path fill="rgb(129,212,26)" stroke="none" d="M 15043,7352 L 15168,7602 15293,7352 15043,7352 Z"/>
 <path fill="none" stroke="rgb(129,212,26)" stroke-linejoin="round" d="M 15043,7352 L 15168,7602 15293,7352 15043,7352 Z"/>
 <path fill="none" stroke="rgb(42,96,153)" stroke-width="80" stroke-linejoin="round" d="M 2406,7582 L 3682,7388 4958,7092 6234,6684 7511,6149 8786,5405 10062,4660 11339,3801 12615,2822 13891,1481 15168,548"/>
 <path fill="rgb(42,96,153)" stroke="none" d="M 2281,7457 L 2281,7707 2531,7707 2531,7457 2281,7457 Z"/>
 <path fill="none" stroke="rgb(42,96,153)" stroke-linejoin="round" d="M 2281,7457 L 2281,7707 2531,7707 2531,7457 2281,7457 Z"/>
 <path fill="rgb(42,96,153)" stroke="none" d="M 3557,7263 L 3557,7513 3807,7513 3807,7263 3557,7263 Z"/>
 <path fill="none" stroke="rgb(42,96,153)" stroke-linejoin="round" d="M 3557,7263 L 3557,7513 3807,7513 3807,7263 3557,7263 Z"/>
 <path fill="rgb(42,96,153)" stroke="none" d="M 4833,6967 L 4833,7217 5083,7217 5083,6967 4833,6967 Z"/>
 <path fill="none" stroke="rgb(42,96,153)" stroke-linejoin="round" d="M 4833,6967 L 4833,7217 5083,7217 5083,6967 4833,6967 Z"/>
 <path fill="rgb(42,96,153)" stroke="none" d="M 6109,6559 L 6109,6809 6359,6809 6359,6559 6109,6559 Z"/>
 <path fill="none" stroke="rgb(42,96,153)" stroke-linejoin="round" d="M 6109,6559 L 6109,6809 6359,6809 6359,6559 6109,6559 Z"/>
 <path fill="rgb(42,96,153)" stroke="none" d="M 7386,6024 L 7386,6274 7636,6274 7636,6024 7386,6024 Z"/>
 <path fill="none" stroke="rgb(42,96,153)" stroke-linejoin="round" d="M 7386,6024 L 7386,6274 7636,6274 7636,6024 7386,6024 Z"/>
 <path fill="rgb(42,96,153)" stroke="none" d="M 8661,5280 L 8661,5530 8911,5530 8911,5280 8661,5280 Z"/>
 <path fill="none" stroke="rgb(42,96,153)" stroke-linejoin="round" d="M 8661,5280 L 8661,5530 8911,5530 8911,5280 8661,5280 Z"/>
 <path fill="rgb(42,96,153)" stroke="none" d="M 9937,4535 L 9937,4785 10187,4785 10187,4535 9937,4535 Z"/>
 <path fill="none" stroke="rgb(42,96,153)" stroke-linejoin="round" d="M 9937,4535 L 9937,4785 10187,4785 10187,4535 9937,4535 Z"/>
 <path fill="rgb(42,96,153)" stroke="none" d="M 11214,3676 L 11214,3926 11464,3926 11464,3676 11214,3676 Z"/>
 <path fill="none" stroke="rgb(42,96,153)" stroke-linejoin="round" d="M 11214,3676 L 11214,3926 11464,3926 11464,3676 11214,3676 Z"/>
 <path fill="rgb(42,96,153)" stroke="none" d="M 12490,2697 L 12490,2947 12740,2947 12740,2697 12490,2697 Z"/>
 <path fill="none" stroke="rgb(42,96,153)" stroke-linejoin="round" d="M 12490,2697 L 12490,2947 12740,2947 12740,2697 12490,2697 Z"/>
 <path fill="rgb(42,96,153)" stroke="none" d="M 13766,1356 L 13766,1606 14016,1606 14016,1356 13766,1356 Z"/>
 <path fill="none" stroke="rgb(42,96,153)" stroke-linejoin="round" d="M 13766,1356 L 13766,1606 14016,1606 14016,1356 13766,1356 Z"/>
 <path fill="rgb(42,96,153)" stroke="none" d="M 15043,423 L 15043,673 15293,673 15293,423 15043,423 Z"/>
 <path fill="none" stroke="rgb(42,96,153)" stroke-linejoin="round" d="M 15043,423 L 15043,673 15293,673 15293,423 15043,423 Z"/>
 <path fill="none" stroke="rgb(85,48,141)" stroke-width="80" stroke-linejoin="round" d="M 2406,7189 L 3682,6527 4958,6519 6234,6533 7511,6549 8786,6562 10062,6571 11339,6575 12615,6580 13891,6583 15168,6583"/>
 <path fill="rgb(85,48,141)" stroke="none" d="M 2281,7189 L 2406,7314 2531,7189 2406,7064 2281,7189 Z"/>
 <path fill="none" stroke="rgb(85,48,141)" stroke-linejoin="round" d="M 2281,7189 L 2406,7314 2531,7189 2406,7064 2281,7189 Z"/>
 <path fill="rgb(85,48,141)" stroke="none" d="M 3557,6527 L 3682,6652 3807,6527 3682,6402 3557,6527 Z"/>
 <path fill="none" stroke="rgb(85,48,141)" stroke-linejoin="round" d="M 3557,6527 L 3682,6652 3807,6527 3682,6402 3557,6527 Z"/>
 <path fill="rgb(85,48,141)" stroke="none" d="M 4833,6519 L 4958,6644 5083,6519 4958,6394 4833,6519 Z"/>
 <path fill="none" stroke="rgb(85,48,141)" stroke-linejoin="round" d="M 4833,6519 L 4958,6644 5083,6519 4958,6394 4833,6519 Z"/>
 <path fill="rgb(85,48,141)" stroke="none" d="M 6109,6533 L 6234,6658 6359,6533 6234,6408 6109,6533 Z"/>
 <path fill="none" stroke="rgb(85,48,141)" stroke-linejoin="round" d="M 6109,6533 L 6234,6658 6359,6533 6234,6408 6109,6533 Z"/>
 <path fill="rgb(85,48,141)" stroke="none" d="M 7386,6549 L 7511,6674 7636,6549 7511,6424 7386,6549 Z"/>
 <path fill="none" stroke="rgb(85,48,141)" stroke-linejoin="round" d="M 7386,6549 L 7511,6674 7636,6549 7511,6424 7386,6549 Z"/>
 <path fill="rgb(85,48,141)" stroke="none" d="M 8661,6562 L 8786,6687 8911,6562 8786,6437 8661,6562 Z"/>
 <path fill="none" stroke="rgb(85,48,141)" stroke-linejoin="round" d="M 8661,6562 L 8786,6687 8911,6562 8786,6437 8661,6562 Z"/>
 <path fill="rgb(85,48,141)" stroke="none" d="M 9937,6571 L 10062,6696 10187,6571 10062,6446 9937,6571 Z"/>
 <path fill="none" stroke="rgb(85,48,141)" stroke-linejoin="round" d="M 9937,6571 L 10062,6696 10187,6571 10062,6446 9937,6571 Z"/>
 <path fill="rgb(85,48,141)" stroke="none" d="M 11214,6575 L 11339,6700 11464,6575 11339,6450 11214,6575 Z"/>
 <path fill="none" stroke="rgb(85,48,141)" stroke-linejoin="round" d="M 11214,6575 L 11339,6700 11464,6575 11339,6450 11214,6575 Z"/>
 <path fill="rgb(85,48,141)" stroke="none" d="M 12490,6580 L 12615,6705 12740,6580 12615,6455 12490,6580 Z"/>
 <path fill="none" stroke="rgb(85,48,141)" stroke-linejoin="round" d="M 12490,6580 L 12615,6705 12740,6580 12615,6455 12490,6580 Z"/>
 <path fill="rgb(85,48,141)" stroke="none" d="M 13766,6583 L 13891,6708 14016,6583 13891,6458 13766,6583 Z"/>
 <path fill="none" stroke="rgb(85,48,141)" stroke-linejoin="round" d="M 13766,6583 L 13891,6708 14016,6583 13891,6458 13766,6583 Z"/>
 <path fill="rgb(85,48,141)" stroke="none" d="M 15043,6583 L 15168,6708 15293,6583 15168,6458 15043,6583 Z"/>
 <path fill="none" stroke="rgb(85,48,141)" stroke-linejoin="round" d="M 15043,6583 L 15168,6708 15293,6583 15168,6458 15043,6583 Z"/>
 <text class="TextShape"><tspan class="TextParagraph" font-family="Liberation Sans, sans-serif" font-size="353px" font-weight="400"><tspan class="TextPosition" x="2313" y="8242"><tspan fill="rgb(0,0,0)" stroke="none">1</tspan></tspan></tspan></text>
 <text class="TextShape"><tspan class="TextParagraph" font-family="Liberation Sans, sans-serif" font-size="353px" font-weight="400"><tspan class="TextPosition" x="3589" y="8242"><tspan fill="rgb(0,0,0)" stroke="none">3</tspan></tspan></tspan></text>
 <text class="TextShape"><tspan class="TextParagraph" font-family="Liberation Sans, sans-serif" font-size="353px" font-weight="400"><tspan class="TextPosition" x="4865" y="8242"><tspan fill="rgb(0,0,0)" stroke="none">5</tspan></tspan></tspan></text>
 <text class="TextShape"><tspan class="TextParagraph" font-family="Liberation Sans, sans-serif" font-size="353px" font-weight="400"><tspan class="TextPosition" x="6141" y="8242"><tspan fill="rgb(0,0,0)" stroke="none">7</tspan></tspan></tspan></text>
 <text class="TextShape"><tspan class="TextParagraph" font-family="Liberation Sans, sans-serif" font-size="353px" font-weight="400"><tspan class="TextPosition" x="7418" y="8242"><tspan fill="rgb(0,0,0)" stroke="none">9</tspan></tspan></tspan></text>
 <text class="TextShape"><tspan class="TextParagraph" font-family="Liberation Sans, sans-serif" font-size="353px" font-weight="400"><tspan class="TextPosition" x="8602" y="8242"><tspan fill="rgb(0,0,0)" stroke="none">11</tspan></tspan></tspan></text>
 <text class="TextShape"><tspan class="TextParagraph" font-family="Liberation Sans, sans-serif" font-size="353px" font-weight="400"><tspan class="TextPosition" x="9878" y="8242"><tspan fill="rgb(0,0,0)" stroke="none">13</tspan></tspan></tspan></text>
 <text class="TextShape"><tspan class="TextParagraph" font-family="Liberation Sans, sans-serif" font-size="353px" font-weight="400"><tspan class="TextPosition" x="11155" y="8242"><tspan fill="rgb(0,0,0)" stroke="none">15</tspan></tspan></tspan></text>
 <text class="TextShape"><tspan class="TextParagraph" font-family="Liberation Sans, sans-serif" font-size="353px" font-weight="400"><tspan class="TextPosition" x="12431" y="8242"><tspan fill="rgb(0,0,0)" stroke="none">17</tspan></tspan></tspan></text>
 <text class="TextShape"><tspan class="TextParagraph" font-family="Liberation Sans, sans-serif" font-size="353px" font-weight="400"><tspan class="TextPosition" x="13707" y="8242"><tspan fill="rgb(0,0,0)" stroke="none">19</tspan></tspan></tspan></text>
 <text class="TextShape"><tspan class="TextParagraph" font-family="Liberation Sans, sans-serif" font-size="353px" font-weight="400"><tspan class="TextPosition" x="14984" y="8242"><tspan fill="rgb(0,0,0)" stroke="none">21</tspan></tspan></tspan></text>
 <text class="TextShape"><tspan class="TextParagraph" font-family="Liberation Sans, sans-serif" font-size="353px" font-weight="400"><tspan class="TextPosition" x="1495" y="7795"><tspan fill="rgb(0,0,0)" stroke="none">0.00</tspan></tspan></tspan></text>
 <text class="TextShape"><tspan class="TextParagraph" font-family="Liberation Sans, sans-serif" font-size="353px" font-weight="400"><tspan class="TextPosition" x="1495" y="7066"><tspan fill="rgb(0,0,0)" stroke="none">0.05</tspan></tspan></tspan></text>
 <text class="TextShape"><tspan class="TextParagraph" font-family="Liberation Sans, sans-serif" font-size="353px" font-weight="400"><tspan class="TextPosition" x="1495" y="6337"><tspan fill="rgb(0,0,0)" stroke="none">0.10</tspan></tspan></tspan></text>
 <text class="TextShape"><tspan class="TextParagraph" font-family="Liberation Sans, sans-serif" font-size="353px" font-weight="400"><tspan class="TextPosition" x="1495" y="5608"><tspan fill="rgb(0,0,0)" stroke="none">0.15</tspan></tspan></tspan></text>
 <text class="TextShape"><tspan class="TextParagraph" font-family="Liberation Sans, sans-serif" font-size="353px" font-weight="400"><tspan class="TextPosition" x="1495" y="4880"><tspan fill="rgb(0,0,0)" stroke="none">0.20</tspan></tspan></tspan></text>
 <text class="TextShape"><tspan class="TextParagraph" font-family="Liberation Sans, sans-serif" font-size="353px" font-weight="400"><tspan class="TextPosition" x="1495" y="4151"><tspan fill="rgb(0,0,0)" stroke="none">0.25</tspan></tspan></tspan></text>
 <text class="TextShape"><tspan class="TextParagraph" font-family="Liberation Sans, sans-serif" font-size="353px" font-weight="400"><tspan class="TextPosition" x="1495" y="3422"><tspan fill="rgb(0,0,0)" stroke="none">0.30</tspan></tspan></tspan></text>
 <text class="TextShape"><tspan class="TextParagraph" font-family="Liberation Sans, sans-serif" font-size="353px" font-weight="400"><tspan class="TextPosition" x="1495" y="2694"><tspan fill="rgb(0,0,0)" stroke="none">0.35</tspan></tspan></tspan></text>
 <text class="TextShape"><tspan class="TextParagraph" font-family="Liberation Sans, sans-serif" font-size="353px" font-weight="400"><tspan class="TextPosition" x="1495" y="1965"><tspan fill="rgb(0,0,0)" stroke="none">0.40</tspan></tspan></tspan></text>
 <text class="TextShape"><tspan class="TextParagraph" font-family="Liberation Sans, sans-serif" font-size="353px" font-weight="400"><tspan class="TextPosition" x="1495" y="1236"><tspan fill="rgb(0,0,0)" stroke="none">0.45</tspan></tspan></tspan></text>
 <text class="TextShape"><tspan class="TextParagraph" font-family="Liberation Sans, sans-serif" font-size="353px" font-weight="400"><tspan class="TextPosition" x="1495" y="508"><tspan fill="rgb(0,0,0)" stroke="none">0.50</tspan></tspan></tspan></text>
 <path fill="rgb(255,255,255)" stroke="none" d="M 6803,3917 L 3244,3917 3244,734 10362,734 10362,3917 6803,3917 Z"/>
 <path fill="none" stroke="rgb(255,0,0)" stroke-width="80" stroke-linejoin="round" d="M 3807,1096 L 4607,1096"/>
 <path fill="rgb(255,0,0)" stroke="none" d="M 4080,1223 L 4334,1223 4207,969 4080,1223 Z"/>
 <path fill="none" stroke="rgb(255,0,0)" stroke-linejoin="round" d="M 4080,1223 L 4334,1223 4207,969 4080,1223 Z"/>
 <path fill="none" stroke="rgb(255,128,0)" stroke-width="80" stroke-linejoin="round" d="M 3807,1710 L 4607,1710"/>
 <path fill="rgb(255,128,0)" stroke="none" d="M 4080,1583 L 4080,1837 4334,1710 4080,1583 Z"/>
 <path fill="none" stroke="rgb(255,128,0)" stroke-linejoin="round" d="M 4080,1583 L 4080,1837 4334,1710 4080,1583 Z"/>
 <path fill="none" stroke="rgb(129,212,26)" stroke-width="80" stroke-linejoin="round" d="M 3807,2324 L 4607,2324"/>
 <path fill="rgb(129,212,26)" stroke="none" d="M 4080,2197 L 4207,2451 4334,2197 4080,2197 Z"/>
 <path fill="none" stroke="rgb(129,212,26)" stroke-linejoin="round" d="M 4080,2197 L 4207,2451 4334,2197 4080,2197 Z"/>
 <path fill="none" stroke="rgb(42,96,153)" stroke-width="80" stroke-linejoin="round" d="M 3807,2938 L 4607,2938"/>
 <path fill="rgb(42,96,153)" stroke="none" d="M 4080,2811 L 4080,3065 4334,3065 4334,2811 4080,2811 Z"/>
 <path fill="none" stroke="rgb(42,96,153)" stroke-linejoin="round" d="M 4080,2811 L 4080,3065 4334,3065 4334,2811 4080,2811 Z"/>
 <path fill="none" stroke="rgb(85,48,141)" stroke-width="80" stroke-linejoin="round" d="M 3807,3552 L 4607,3552"/>
 <path fill="rgb(85,48,141)" stroke="none" d="M 4080,3552 L 4207,3679 4334,3552 4207,3425 4080,3552 Z"/>
 <path fill="none" stroke="rgb(85,48,141)" stroke-linejoin="round" d="M 4080,3552 L 4207,3679 4334,3552 4207,3425 4080,3552 Z"/>
 <text class="TextShape"><tspan class="TextParagraph" font-family="Liberation Sans, sans-serif" font-size="423px" font-weight="400"><tspan class="TextPosition" x="4707" y="1241"><tspan fill="rgb(0,0,0)" stroke="none">Sauvola</tspan><tspan font-family="Noto Sans CJK SC Regular, sans-serif" font-size="353px" fill="rgb(0,0,0)" stroke="none">方法（直接实现）</tspan></tspan></tspan></text>
 <text class="TextShape"><tspan class="TextParagraph" font-family="Liberation Sans, sans-serif" font-size="423px" font-weight="400"><tspan class="TextPosition" x="4707" y="1855"><tspan fill="rgb(0,0,0)" stroke="none">Sauvola</tspan><tspan font-family="Noto Sans CJK SC Regular, sans-serif" font-size="353px" fill="rgb(0,0,0)" stroke="none">方法（积分图像实现）</tspan></tspan></tspan></text>
 <text class="TextShape"><tspan class="TextParagraph" font-family="Liberation Sans, sans-serif" font-size="423px" font-weight="400"><tspan class="TextPosition" x="4707" y="2469"><tspan fill="rgb(0,0,0)" stroke="none">Sauvola</tspan><tspan font-family="Noto Sans CJK SC Regular, sans-serif" font-size="353px" fill="rgb(0,0,0)" stroke="none">方法（本文实现）</tspan></tspan></tspan></text>
 <text class="TextShape"><tspan class="TextParagraph" font-family="Liberation Sans, sans-serif" font-size="423px" font-weight="400"><tspan class="TextPosition" x="4707" y="3083"><tspan fill="rgb(0,0,0)" stroke="none">Bernsen</tspan><tspan font-family="Noto Sans CJK SC Regular, sans-serif" font-size="353px" fill="rgb(0,0,0)" stroke="none">方法（直接实现）</tspan></tspan></tspan></text>
 <text class="TextShape"><tspan class="TextParagraph" font-family="Liberation Sans, sans-serif" font-size="423px" font-weight="400"><tspan class="TextPosition" x="4707" y="3697"><tspan fill="rgb(0,0,0)" stroke="none">Bernsen</tspan><tspan font-family="Noto Sans CJK SC Regular, sans-serif" font-size="353px" fill="rgb(0,0,0)" stroke="none">方法（本文实现）</tspan></tspan></tspan></text>
 <text class="TextShape"><tspan class="TextParagraph" font-family="Noto Sans CJK SC Regular, sans-serif" font-size="318px" font-weight="400"><tspan class="TextPosition" x="7154" y="9013"><tspan fill="rgb(0,0,0)" stroke="none">窗口的宽度和高度</tspan></tspan></tspan></text>
 <text class="TextShape" transform="rotate(-90 948 5830)"><tspan class="TextParagraph" font-family="Noto Sans CJK SC Regular, sans-serif" font-size="318px" font-weight="400"><tspan class="TextPosition" x="948" y="5830"><tspan fill="rgb(0,0,0)" stroke="none">平均用时（秒</tspan></tspan><tspan class="TextPosition" x="948" y="3830"><tspan font-family="Liberation Sans, sans-serif" font-size="423px" fill="rgb(0,0,0)" stroke="none">/</tspan></tspan><tspan class="TextPosition" x="948" y="3634"><tspan fill="rgb(0,0,0)" stroke="none">图片）</tspan></tspan></tspan></text>
</svg>