<?xml version="1.0" encoding="UTF-8" standalone="no"?>
<svg
   xmlns:dc="http://purl.org/dc/elements/1.1/"
   xmlns:cc="http://creativecommons.org/ns#"
   xmlns:rdf="http://www.w3.org/1999/02/22-rdf-syntax-ns#"
   xmlns:svg="http://www.w3.org/2000/svg"
   xmlns="http://www.w3.org/2000/svg"
   xmlns:xlink="http://www.w3.org/1999/xlink"
   id="svg228"
   version="1.1"
   viewBox="0 0 440 440"
   height="440"
   width="440">
  <defs
     id="defs222">
    <pattern
       patternTransform="matrix(2.3029383,-2.4098929,8.0731125,7.7148162,20,-19.999996)"
       id="pattern6267"
       xlink:href="#Strips1_5" />
    <pattern
       patternTransform="matrix(2.4172021,2.2952661,-7.6891167,8.097601,20,-19.999996)"
       id="pattern6259"
       xlink:href="#Strips1_5" />
    <pattern
       patternTransform="matrix(2.2889455,-2.4231878,8.1176526,7.6679423,20,-19.999996)"
       id="pattern2578"
       xlink:href="#Strips1_5" />
    <pattern
       patternTransform="matrix(2.4055324,2.3074938,-7.730078,8.0585062,20,-19.999996)"
       id="pattern2572"
       xlink:href="#Strips1_5" />
    <pattern
       patternTransform="matrix(2.3115619,-2.4016227,8.0454101,7.7437072,20,-19.999996)"
       id="pattern2559"
       xlink:href="#Strips1_5" />
    <pattern
       patternTransform="matrix(2.3011749,-2.4115777,8.0787592,7.708911,20,-19.999996)"
       id="pattern2553"
       xlink:href="#Strips1_5" />
    <pattern
       patternTransform="matrix(2.4351679,2.2761955,-7.6252308,8.1577866,20,-19.999996)"
       id="pattern2547"
       xlink:href="#Strips1_5" />
    <pattern
       patternTransform="matrix(2.4347782,2.2766135,-7.6266303,8.1564804,20,-19.999996)"
       id="pattern2541"
       xlink:href="#Strips1_5" />
    <pattern
       patternUnits="userSpaceOnUse"
       width="6"
       height="1"
       patternTransform="translate(0,0) scale(10,10)"
       id="Strips1_5">
      <rect
         style="fill:black;stroke:none"
         x="0"
         y="-0.5"
         width="1"
         height="2"
         id="rect1849" />
    </pattern>
  </defs>
  <metadata
     id="metadata225">
    <rdf:RDF>
      <cc:Work
         rdf:about="">
        <dc:format>image/svg+xml</dc:format>
        <dc:type
           rdf:resource="http://purl.org/dc/dcmitype/StillImage" />
        <dc:title></dc:title>
      </cc:Work>
    </rdf:RDF>
  </metadata>
  <g
     transform="translate(0,-151.16663)"
     id="layer1">
    <rect
       style="opacity:1;fill:url(#pattern2547);fill-opacity:1;fill-rule:nonzero;stroke:#000000;stroke-width:4;stroke-linecap:butt;stroke-linejoin:round;stroke-miterlimit:4;stroke-dasharray:none;stroke-dashoffset:0;stroke-opacity:1;paint-order:markers stroke fill"
       id="rect5544-7"
       width="40"
       height="160"
       x="380"
       y="391.16663" />
    <rect
       style="opacity:1;fill:url(#pattern2553);fill-opacity:1;fill-rule:nonzero;stroke:#000000;stroke-width:4;stroke-linecap:butt;stroke-linejoin:round;stroke-miterlimit:4;stroke-dasharray:none;stroke-dashoffset:0;stroke-opacity:1;paint-order:markers stroke fill"
       id="rect5546-9"
       width="40"
       height="160"
       x="260"
       y="191.16664" />
    <rect
       style="opacity:0.9;fill:url(#pattern2578);fill-opacity:1;fill-rule:nonzero;stroke:#000000;stroke-width:4;stroke-linecap:butt;stroke-linejoin:round;stroke-miterlimit:4;stroke-dasharray:none;stroke-dashoffset:0;stroke-opacity:1;paint-order:markers stroke fill"
       id="rect5601"
       width="120"
       height="160"
       x="19.999985"
       y="191.16663" />
    <rect
       style="opacity:1;fill:url(#pattern2572);fill-opacity:1;fill-rule:nonzero;stroke:#000000;stroke-width:4;stroke-linecap:butt;stroke-linejoin:round;stroke-miterlimit:4;stroke-dasharray:none;stroke-dashoffset:0;stroke-opacity:1;paint-order:markers stroke fill"
       id="rect5603"
       width="120"
       height="160"
       x="300"
       y="191.16664" />
    <g
       transform="matrix(1.3333333,0,0,1.3333333,-84.34715,-633.50484)"
       id="g5706">
      <g
         style="font-style:normal;font-variant:normal;font-weight:normal;font-stretch:normal;letter-spacing:normal;word-spacing:normal;text-anchor:start;fill:none;fill-opacity:1;fill-rule:evenodd;stroke:#000000;stroke-linecap:butt;stroke-linejoin:miter;stroke-miterlimit:10.43299961;stroke-dasharray:none;stroke-dashoffset:0;stroke-opacity:1"
         id="g5704"
         transform="matrix(0.75857143,0,0,-0.75857143,-132.75,996)"
         xml:space="preserve"
         stroke-miterlimit="10.433"
         font-style="normal"
         font-variant="normal"
         font-weight="normal"
         font-stretch="normal"
         font-size-adjust="none"
         letter-spacing="normal"
         word-spacing="normal"><path
           style="fill:#000000;stroke-width:0"
           d="m 489.75,422.5 h 0.14 0.15 0.14 l 0.07,0.01 h 0.08 l 0.07,0.01 0.07,0.01 0.07,0.01 0.07,0.01 0.07,0.01 0.06,0.02 0.07,0.02 0.06,0.02 0.06,0.02 0.06,0.03 0.06,0.03 0.05,0.04 0.05,0.03 0.05,0.05 0.04,0.04 0.04,0.05 0.02,0.03 0.02,0.03 0.01,0.02 0.02,0.03 0.01,0.03 0.02,0.04 0.01,0.03 0.01,0.04 0.01,0.03 0.01,0.04 v 0.04 l 0.01,0.04 v 0.04 l 0.01,0.04 v 0.04 0.05 c 0,1 -0.95,1 -1.64,1 h -29.84 c -0.71,0 -1.64,0 -1.64,-1 0,-0.98 0.93,-0.98 1.68,-0.98 z"
           id="path5700" /><path
           style="fill:#000000;stroke-width:0"
           d="m 489.8,412.82 h 0.07 0.06 l 0.14,0.01 h 0.14 0.07 l 0.07,0.01 0.07,0.01 h 0.07 l 0.06,0.01 0.07,0.02 0.07,0.01 0.06,0.02 0.07,0.02 0.06,0.02 0.06,0.02 0.06,0.03 0.05,0.03 0.05,0.04 0.05,0.04 0.05,0.04 0.04,0.05 0.02,0.02 0.02,0.03 0.02,0.02 0.02,0.03 0.01,0.03 0.02,0.03 0.01,0.03 0.02,0.03 0.01,0.04 0.01,0.03 0.01,0.04 0.01,0.04 v 0.04 l 0.01,0.04 v 0.04 l 0.01,0.04 v 0.05 0.04 c 0,1 -0.95,1 -1.69,1 H 460 c -0.75,0 -1.68,0 -1.68,-1 0,-1 0.93,-1 1.64,-1 z"
           id="path5702" /></g>    </g>
    <g
       transform="matrix(1.3333333,0,0,1.3333333,35.671264,-432.38735)"
       id="g5912">
      <g
         style="font-style:normal;font-variant:normal;font-weight:normal;font-stretch:normal;letter-spacing:normal;word-spacing:normal;text-anchor:start;fill:none;fill-opacity:1;fill-rule:evenodd;stroke:#000000;stroke-linecap:butt;stroke-linejoin:miter;stroke-miterlimit:10.43299961;stroke-dasharray:none;stroke-dashoffset:0;stroke-opacity:1"
         word-spacing="normal"
         letter-spacing="normal"
         font-size-adjust="none"
         font-stretch="normal"
         font-weight="normal"
         font-variant="normal"
         font-style="normal"
         stroke-miterlimit="10.433"
         xml:space="preserve"
         transform="matrix(0.75857143,0,0,-0.75857143,-132.75,996)"
         id="g5910"><path
           style="fill:#000000;stroke-width:0"
           id="path5908"
           d="m 475.89,417.65 h 13.91 c 0.69,0 1.64,0 1.64,1 0,1 -0.95,1 -1.64,1 h -13.91 v 13.96 c 0,0.68 0,1.64 -1,1.64 -0.98,0 -0.98,-0.96 -0.98,-1.64 v -13.96 h -13.95 c -0.71,0 -1.64,0 -1.64,-1 0,-1 0.93,-1 1.64,-1 h 13.95 v -13.94 c 0,-0.7 0,-1.65 0.98,-1.65 1,0 1,0.95 1,1.65 z" /></g>    </g>
    <g
       transform="matrix(1.3333333,0,0,1.3333333,-84.70115,-433.48987)"
       id="g6124">
      <g
         style="font-style:normal;font-variant:normal;font-weight:normal;font-stretch:normal;letter-spacing:normal;word-spacing:normal;text-anchor:start;fill:none;fill-opacity:1;fill-rule:evenodd;stroke:#000000;stroke-linecap:butt;stroke-linejoin:miter;stroke-miterlimit:10.43299961;stroke-dasharray:none;stroke-dashoffset:0;stroke-opacity:1"
         id="g6122"
         transform="matrix(0.75857143,0,0,-0.75857143,-132.75,996)"
         xml:space="preserve"
         stroke-miterlimit="10.433"
         font-style="normal"
         font-variant="normal"
         font-weight="normal"
         font-stretch="normal"
         font-size-adjust="none"
         letter-spacing="normal"
         word-spacing="normal"><path
           style="fill:#000000;stroke-width:0"
           d="m 488.35,417.65 h 0.16 0.16 l 0.15,0.01 h 0.08 l 0.08,0.01 h 0.07 l 0.08,0.01 0.07,0.01 0.07,0.01 0.07,0.02 0.07,0.02 0.07,0.02 0.06,0.02 0.06,0.02 0.06,0.03 0.05,0.03 0.06,0.04 0.05,0.03 0.04,0.05 0.04,0.04 0.04,0.05 0.02,0.03 0.02,0.03 0.01,0.03 0.02,0.03 0.01,0.03 0.02,0.03 0.01,0.04 0.01,0.03 0.01,0.04 v 0.04 l 0.01,0.04 0.01,0.04 v 0.04 l 0.01,0.04 v 0.05 0.04 c 0,1 -0.91,1 -1.75,1 h -26.96 c -0.84,0 -1.73,0 -1.73,-1 0,-1 0.89,-1 1.73,-1 z"
           id="path6120" /></g>    </g>
    <rect
       style="opacity:1;fill:url(#pattern2559);fill-opacity:1;fill-rule:nonzero;stroke:#000000;stroke-width:4;stroke-linecap:butt;stroke-linejoin:round;stroke-miterlimit:4;stroke-dasharray:none;stroke-dashoffset:0;stroke-opacity:1;paint-order:markers stroke fill"
       id="rect5546-9-2"
       width="40"
       height="160"
       x="260"
       y="391.16663" />
    <rect
       style="opacity:1;fill:url(#pattern2541);fill-opacity:1;fill-rule:nonzero;stroke:#000000;stroke-width:4;stroke-linecap:butt;stroke-linejoin:round;stroke-miterlimit:4;stroke-dasharray:none;stroke-dashoffset:0;stroke-opacity:1;paint-order:markers stroke fill"
       id="rect5544-7-0"
       width="40"
       height="160"
       x="140"
       y="191.16663" />
    <rect
       y="191.16663"
       x="20"
       height="160"
       width="120"
       id="rect6253"
       style="opacity:1;fill:url(#pattern6259);fill-opacity:1;fill-rule:nonzero;stroke:none;stroke-width:4;stroke-linecap:butt;stroke-linejoin:round;stroke-miterlimit:4;stroke-dasharray:none;stroke-dashoffset:0;stroke-opacity:1;paint-order:markers stroke fill" />
    <rect
       y="191.16663"
       x="300"
       height="160"
       width="120"
       id="rect6261"
       style="opacity:1;fill:url(#pattern6267);fill-opacity:1;fill-rule:nonzero;stroke:none;stroke-width:4;stroke-linecap:butt;stroke-linejoin:round;stroke-miterlimit:4;stroke-dasharray:none;stroke-dashoffset:0;stroke-opacity:1;paint-order:markers stroke fill" />
  </g>
</svg>
